<svg xmlns="http://www.w3.org/2000/svg" width="200" height="200" viewBox="0 0 200 200"><defs><radialGradient id="aq" cx="35%" cy="30%" r="75%"><stop offset="0" stop-color="#a5f3fc"/><stop offset="1" stop-color="#3b82f6"/></radialGradient></defs><ellipse cx="100" cy="188" rx="46" ry="7" fill="#000" opacity=".22"/><path d="M 24 150 q 8 -8 16 0 q 8 8 16 0" fill="none" stroke="#3b2350" stroke-width="15" stroke-linecap="round" stroke-linejoin="round"/><path d="M 24 150 q 8 -8 16 0 q 8 8 16 0" fill="none" stroke="#7dd3fc" stroke-width="5" stroke-linecap="round" stroke-linejoin="round"/><g transform="translate(200 0) scale(-1 1)"><path d="M 24 150 q 8 -8 16 0 q 8 8 16 0" fill="none" stroke="#3b2350" stroke-width="15" stroke-linecap="round" stroke-linejoin="round"/><path d="M 24 150 q 8 -8 16 0 q 8 8 16 0" fill="none" stroke="#7dd3fc" stroke-width="5" stroke-linecap="round" stroke-linejoin="round"/></g><path d="M 100 30 C 118 62 152 90 152 128 C 152 160 128 180 100 180 C 72 180 48 160 48 128 C 48 90 82 62 100 30 Z" fill="url(#aq)" stroke="#3b2350" stroke-width="5" stroke-linejoin="round" stroke-linecap="round"/><ellipse cx="78" cy="104" rx="9" ry="16" fill="#fff" opacity=".45" transform="rotate(20 78 104)"/><g transform="translate(100 132) scale(1)"><g transform="translate(-17 0) scale(1)"><ellipse rx="8.5" ry="11.5" fill="#2b1840"/><ellipse cy="4" rx="6.5" ry="6" fill="#1d4ed8" opacity=".75"/><circle cx="-3" cy="-4.2" r="3.8" fill="#fff"/><circle cx="3.2" cy="4.8" r="1.8" fill="#fff"/></g><g transform="translate(17 0) scale(1)"><ellipse rx="8.5" ry="11.5" fill="#2b1840"/><ellipse cy="4" rx="6.5" ry="6" fill="#1d4ed8" opacity=".75"/><circle cx="-3" cy="-4.2" r="3.8" fill="#fff"/><circle cx="3.2" cy="4.8" r="1.8" fill="#fff"/></g><ellipse cx="-26" cy="13" rx="7.5" ry="4.5" fill="#ff6f9c" opacity=".55"/><ellipse cx="26" cy="13" rx="7.5" ry="4.5" fill="#ff6f9c" opacity=".55"/><g transform="translate(0 15)"><path d="M -7 -1 Q 0 12 7 -1 Z" fill="#c2185b" stroke="#3b2350" stroke-width="3.5" stroke-linejoin="round" stroke-linecap="round"/><ellipse cy="5" rx="3.5" ry="2" fill="#ff8fab"/></g></g><path d="M 137 28 C 127 38 135 52 125 62" fill="none" stroke="#7dd3fc" stroke-width="5" stroke-linecap="round"/><g transform="translate(160 50) rotate(-40) scale(1.25)"><rect x="-7" y="-27" width="14" height="12" rx="3" fill="#f4a261" stroke="#3b2350" stroke-width="3.5" stroke-linejoin="round" stroke-linecap="round"/><ellipse rx="16" ry="18" fill="#f4a261" stroke="#3b2350" stroke-width="3.5" stroke-linejoin="round" stroke-linecap="round"/><path d="M -14 -3 L 14 -3" stroke="#ffe7a3" stroke-width="4"/><path d="M 15 -10 q 11 3 5 15" fill="none" stroke="#3b2350" stroke-width="3.5" stroke-linejoin="round" stroke-linecap="round"/></g><path d="M 32 43 Q 32 50 39 50 Q 32 50 32 57 Q 32 50 25 50 Q 32 50 32 43 Z" fill="#bae6fd"/></svg>
