<svg xmlns="http://www.w3.org/2000/svg" width="200" height="200" viewBox="0 0 200 200"><ellipse cx="100" cy="188" rx="52" ry="7" fill="#000" opacity=".22"/><g transform="rotate(-16 100 150)"><rect x="62" y="36" width="76" height="118" rx="10" fill="#6d28d9" stroke="#3b2350" stroke-width="5" stroke-linejoin="round" stroke-linecap="round"/><rect x="70" y="44" width="60" height="102" rx="6" fill="none" stroke="#fcd34d" stroke-width="3"/><path d="M 100 77 Q 100 95 118 95 Q 100 95 100 113 Q 100 95 82 95 Q 100 95 100 77 Z" fill="#ffe7a3"/></g><g transform="rotate(14 100 150)"><rect x="62" y="36" width="76" height="118" rx="10" fill="#312e81" stroke="#3b2350" stroke-width="5" stroke-linejoin="round" stroke-linecap="round"/><rect x="70" y="44" width="60" height="102" rx="6" fill="none" stroke="#fcd34d" stroke-width="3"/><path d="M 108 74 A 24 24 0 1 0 110 118 A 18 18 0 1 1 108 74 Z" fill="#fde68a"/><path d="M 116 118 Q 116 124 122 124 Q 116 124 116 130 Q 116 124 110 124 Q 116 124 116 118 Z" fill="#ffe7a3"/></g></svg>
